<svg width="41" height="41" viewBox="0 0 41 41" fill="none" xmlns="http://www.w3.org/2000/svg">
<path d="M20.4999 10.25V6.83337M20.4999 10.25C18.6129 10.25 17.0833 11.7797 17.0833 13.6667C17.0833 15.5537 18.6129 17.0834 20.4999 17.0834M20.4999 10.25C22.3869 10.25 23.9166 11.7797 23.9166 13.6667C23.9166 15.5537 22.3869 17.0834 20.4999 17.0834M10.2499 30.75C12.1369 30.75 13.6666 29.2203 13.6666 27.3334C13.6666 25.4464 12.1369 23.9167 10.2499 23.9167M10.2499 30.75C8.36295 30.75 6.83325 29.2203 6.83325 27.3334C6.83325 25.4464 8.36295 23.9167 10.2499 23.9167M10.2499 30.75V34.1667M10.2499 23.9167V6.83337M20.4999 17.0834V34.1667M30.7499 30.75C32.6369 30.75 34.1666 29.2203 34.1666 27.3334C34.1666 25.4464 32.6369 23.9167 30.7499 23.9167M30.7499 30.75C28.8629 30.75 27.3333 29.2203 27.3333 27.3334C27.3333 25.4464 28.8629 23.9167 30.7499 23.9167M30.7499 30.75V34.1667M30.7499 23.9167V6.83337" stroke="black" stroke-width="2" stroke-linecap="round" stroke-linejoin="round"/>
</svg>
