<svg width="41" height="41" viewBox="0 0 41 41" fill="none" xmlns="http://www.w3.org/2000/svg">
<path d="M15.375 32.4583V22.2083C15.375 20.3214 13.8453 18.7917 11.9583 18.7917H8.54167C6.65469 18.7917 5.125 20.3214 5.125 22.2083V32.4583C5.125 34.3453 6.65469 35.875 8.54167 35.875H11.9583C13.8453 35.875 15.375 34.3453 15.375 32.4583ZM15.375 32.4583V15.375C15.375 13.488 16.9047 11.9583 18.7917 11.9583H22.2083C24.0953 11.9583 25.625 13.488 25.625 15.375V32.4583M15.375 32.4583C15.375 34.3453 16.9047 35.875 18.7917 35.875H22.2083C24.0953 35.875 25.625 34.3453 25.625 32.4583M25.625 32.4583V8.54167C25.625 6.65469 27.1547 5.125 29.0417 5.125H32.4583C34.3453 5.125 35.875 6.65469 35.875 8.54167V32.4583C35.875 34.3453 34.3453 35.875 32.4583 35.875H29.0417C27.1547 35.875 25.625 34.3453 25.625 32.4583Z" stroke="black" stroke-width="2" stroke-linecap="round" stroke-linejoin="round"/>
</svg>
